ISO-10303-21;
HEADER;
/* Generated by software containing ST-Developer
 * from STEP Tools, Inc. (www.steptools.com) 
 */

FILE_DESCRIPTION(
/* description */ ('',
'CAx-IF Rec.Pracs.---Representation and Presentation of Product Manufa
cturing Information (PMI)---4.0---2014-10-13'),
/* implementation_level */ '2;1');

FILE_NAME(
/* name */ 'orbiter mount.step',
/* time_stamp */ '2025-01-16T23:01:28+08:00',
/* author */ (''),
/* organization */ (''),
/* preprocessor_version */ 'ST-DEVELOPER v20',
/* originating_system */ 'Autodesk Translation Framework v13.20.0.188',

/* authorisation */ '');

FILE_SCHEMA (('AP242_MANAGED_MODEL_BASED_3D_ENGINEERING_MIM_LF { 1 0 10303 442 1 1 4 }'));
ENDSEC;

DATA;
#10=MECHANICAL_DESIGN_GEOMETRIC_PRESENTATION_REPRESENTATION('',(#13),#1428);
#11=SHAPE_REPRESENTATION_RELATIONSHIP('SRR','None',#1435,#12);
#12=ADVANCED_BREP_SHAPE_REPRESENTATION('',(#14),#1427);
#13=STYLED_ITEM('',(#1444),#14);
#14=MANIFOLD_SOLID_BREP('Body1',#858);
#15=FACE_BOUND('',#114,.T.);
#16=FACE_BOUND('',#118,.T.);
#17=FACE_BOUND('',#119,.T.);
#18=FACE_BOUND('',#125,.T.);
#19=FACE_BOUND('',#128,.T.);
#20=FACE_BOUND('',#140,.T.);
#21=FACE_BOUND('',#143,.T.);
#22=FACE_BOUND('',#147,.T.);
#23=FACE_BOUND('',#154,.T.);
#24=FACE_BOUND('',#155,.T.);
#25=FACE_BOUND('',#162,.T.);
#26=FACE_BOUND('',#163,.T.);
#27=FACE_BOUND('',#164,.T.);
#28=FACE_BOUND('',#165,.T.);
#29=FACE_BOUND('',#166,.T.);
#30=FACE_BOUND('',#169,.T.);
#31=PLANE('',#877);
#32=PLANE('',#882);
#33=PLANE('',#883);
#34=PLANE('',#886);
#35=PLANE('',#888);
#36=PLANE('',#889);
#37=PLANE('',#893);
#38=PLANE('',#898);
#39=PLANE('',#902);
#40=PLANE('',#903);
#41=PLANE('',#904);
#42=PLANE('',#905);
#43=PLANE('',#906);
#44=PLANE('',#907);
#45=PLANE('',#908);
#46=PLANE('',#909);
#47=PLANE('',#910);
#48=PLANE('',#915);
#49=PLANE('',#921);
#50=PLANE('',#928);
#51=PLANE('',#932);
#52=PLANE('',#933);
#53=PLANE('',#934);
#54=PLANE('',#935);
#55=PLANE('',#936);
#56=PLANE('',#937);
#57=PLANE('',#938);
#58=PLANE('',#939);
#59=PLANE('',#940);
#60=PLANE('',#941);
#61=PLANE('',#942);
#62=PLANE('',#943);
#63=PLANE('',#944);
#64=PLANE('',#945);
#65=FACE_OUTER_BOUND('',#112,.T.);
#66=FACE_OUTER_BOUND('',#113,.T.);
#67=FACE_OUTER_BOUND('',#115,.T.);
#68=FACE_OUTER_BOUND('',#116,.T.);
#69=FACE_OUTER_BOUND('',#117,.T.);
#70=FACE_OUTER_BOUND('',#120,.T.);
#71=FACE_OUTER_BOUND('',#121,.T.);
#72=FACE_OUTER_BOUND('',#122,.T.);
#73=FACE_OUTER_BOUND('',#123,.T.);
#74=FACE_OUTER_BOUND('',#124,.T.);
#75=FACE_OUTER_BOUND('',#126,.T.);
#76=FACE_OUTER_BOUND('',#127,.T.);
#77=FACE_OUTER_BOUND('',#129,.T.);
#78=FACE_OUTER_BOUND('',#130,.T.);
#79=FACE_OUTER_BOUND('',#131,.T.);
#80=FACE_OUTER_BOUND('',#132,.T.);
#81=FACE_OUTER_BOUND('',#133,.T.);
#82=FACE_OUTER_BOUND('',#134,.T.);
#83=FACE_OUTER_BOUND('',#135,.T.);
#84=FACE_OUTER_BOUND('',#136,.T.);
#85=FACE_OUTER_BOUND('',#137,.T.);
#86=FACE_OUTER_BOUND('',#138,.T.);
#87=FACE_OUTER_BOUND('',#139,.T.);
#88=FACE_OUTER_BOUND('',#141,.T.);
#89=FACE_OUTER_BOUND('',#142,.T.);
#90=FACE_OUTER_BOUND('',#144,.T.);
#91=FACE_OUTER_BOUND('',#145,.T.);
#92=FACE_OUTER_BOUND('',#146,.T.);
#93=FACE_OUTER_BOUND('',#148,.T.);
#94=FACE_OUTER_BOUND('',#149,.T.);
#95=FACE_OUTER_BOUND('',#150,.T.);
#96=FACE_OUTER_BOUND('',#151,.T.);
#97=FACE_OUTER_BOUND('',#152,.T.);
#98=FACE_OUTER_BOUND('',#153,.T.);
#99=FACE_OUTER_BOUND('',#156,.T.);
#100=FACE_OUTER_BOUND('',#157,.T.);
#101=FACE_OUTER_BOUND('',#158,.T.);
#102=FACE_OUTER_BOUND('',#159,.T.);
#103=FACE_OUTER_BOUND('',#160,.T.);
#104=FACE_OUTER_BOUND('',#161,.T.);
#105=FACE_OUTER_BOUND('',#167,.T.);
#106=FACE_OUTER_BOUND('',#168,.T.);
#107=FACE_OUTER_BOUND('',#170,.T.);
#108=FACE_OUTER_BOUND('',#171,.T.);
#109=FACE_OUTER_BOUND('',#172,.T.);
#110=FACE_OUTER_BOUND('',#173,.T.);
#111=FACE_OUTER_BOUND('',#174,.T.);
#112=EDGE_LOOP('',(#568,#569,#570,#571,#572,#573,#574,#575));
#113=EDGE_LOOP('',(#576,#577));
#114=EDGE_LOOP('',(#578,#579));
#115=EDGE_LOOP('',(#580,#581,#582,#583));
#116=EDGE_LOOP('',(#584,#585,#586));
#117=EDGE_LOOP('',(#587,#588,#589,#590,#591,#592,#593,#594,#595,#596,#597,
#598,#599,#600,#601,#602,#603,#604,#605,#606,#607,#608));
#118=EDGE_LOOP('',(#609));
#119=EDGE_LOOP('',(#610));
#120=EDGE_LOOP('',(#611,#612,#613,#614,#615,#616));
#121=EDGE_LOOP('',(#617,#618,#619,#620));
#122=EDGE_LOOP('',(#621,#622,#623,#624));
#123=EDGE_LOOP('',(#625,#626,#627,#628));
#124=EDGE_LOOP('',(#629));
#125=EDGE_LOOP('',(#630));
#126=EDGE_LOOP('',(#631,#632,#633,#634));
#127=EDGE_LOOP('',(#635));
#128=EDGE_LOOP('',(#636));
#129=EDGE_LOOP('',(#637,#638,#639,#640));
#130=EDGE_LOOP('',(#641,#642,#643,#644));
#131=EDGE_LOOP('',(#645,#646,#647,#648));
#132=EDGE_LOOP('',(#649,#650,#651,#652));
#133=EDGE_LOOP('',(#653,#654,#655,#656));
#134=EDGE_LOOP('',(#657,#658,#659,#660,#661));
#135=EDGE_LOOP('',(#662,#663,#664,#665));
#136=EDGE_LOOP('',(#666,#667,#668,#669));
#137=EDGE_LOOP('',(#670,#671,#672,#673));
#138=EDGE_LOOP('',(#674,#675,#676,#677,#678));
#139=EDGE_LOOP('',(#679,#680,#681,#682,#683));
#140=EDGE_LOOP('',(#684));
#141=EDGE_LOOP('',(#685,#686,#687,#688));
#142=EDGE_LOOP('',(#689));
#143=EDGE_LOOP('',(#690));
#144=EDGE_LOOP('',(#691,#692,#693,#694));
#145=EDGE_LOOP('',(#695,#696,#697,#698));
#146=EDGE_LOOP('',(#699));
#147=EDGE_LOOP('',(#700));
#148=EDGE_LOOP('',(#701,#702,#703,#704));
#149=EDGE_LOOP('',(#705,#706,#707,#708));
#150=EDGE_LOOP('',(#709));
#151=EDGE_LOOP('',(#710,#711,#712,#713));
#152=EDGE_LOOP('',(#714));
#153=EDGE_LOOP('',(#715,#716,#717,#718,#719,#720,#721,#722,#723,#724,#725,
#726,#727,#728,#729,#730));
#154=EDGE_LOOP('',(#731));
#155=EDGE_LOOP('',(#732));
#156=EDGE_LOOP('',(#733,#734,#735,#736));
#157=EDGE_LOOP('',(#737,#738,#739,#740));
#158=EDGE_LOOP('',(#741,#742,#743,#744));
#159=EDGE_LOOP('',(#745,#746,#747,#748,#749));
#160=EDGE_LOOP('',(#750,#751,#752,#753,#754,#755));
#161=EDGE_LOOP('',(#756,#757,#758,#759));
#162=EDGE_LOOP('',(#760));
#163=EDGE_LOOP('',(#761));
#164=EDGE_LOOP('',(#762));
#165=EDGE_LOOP('',(#763));
#166=EDGE_LOOP('',(#764));
#167=EDGE_LOOP('',(#765,#766,#767,#768,#769,#770));
#168=EDGE_LOOP('',(#771,#772,#773,#774,#775));
#169=EDGE_LOOP('',(#776));
#170=EDGE_LOOP('',(#777,#778,#779,#780,#781));
#171=EDGE_LOOP('',(#782,#783,#784,#785));
#172=EDGE_LOOP('',(#786,#787,#788,#789));
#173=EDGE_LOOP('',(#790,#791,#792,#793));
#174=EDGE_LOOP('',(#794,#795,#796,#797));
#175=LINE('',#1191,#262);
#176=LINE('',#1195,#263);
#177=LINE('',#1199,#264);
#178=LINE('',#1204,#265);
#179=LINE('',#1212,#266);
#180=LINE('',#1214,#267);
#181=LINE('',#1216,#268);
#182=LINE('',#1218,#269);
#183=LINE('',#1220,#270);
#184=LINE('',#1222,#271);
#185=LINE('',#1224,#272);
#186=LINE('',#1226,#273);
#187=LINE('',#1228,#274);
#188=LINE('',#1230,#275);
#189=LINE('',#1232,#276);
#190=LINE('',#1234,#277);
#191=LINE('',#1236,#278);
#192=LINE('',#1238,#279);
#193=LINE('',#1240,#280);
#194=LINE('',#1242,#281);
#195=LINE('',#1244,#282);
#196=LINE('',#1246,#283);
#197=LINE('',#1248,#284);
#198=LINE('',#1250,#285);
#199=LINE('',#1251,#286);
#200=LINE('',#1259,#287);
#201=LINE('',#1261,#288);
#202=LINE('',#1262,#289);
#203=LINE('',#1265,#290);
#204=LINE('',#1266,#291);
#205=LINE('',#1269,#292);
#206=LINE('',#1270,#293);
#207=LINE('',#1275,#294);
#208=LINE('',#1284,#295);
#209=LINE('',#1290,#296);
#210=LINE('',#1292,#297);
#211=LINE('',#1295,#298);
#212=LINE('',#1297,#299);
#213=LINE('',#1298,#300);
#214=LINE('',#1301,#301);
#215=LINE('',#1303,#302);
#216=LINE('',#1304,#303);
#217=LINE('',#1307,#304);
#218=LINE('',#1309,#305);
#219=LINE('',#1310,#306);
#220=LINE('',#1312,#307);
#221=LINE('',#1316,#308);
#222=LINE('',#1318,#309);
#223=LINE('',#1320,#310);
#224=LINE('',#1321,#311);
#225=LINE('',#1324,#312);
#226=LINE('',#1326,#313);
#227=LINE('',#1327,#314);
#228=LINE('',#1329,#315);
#229=LINE('',#1330,#316);
#230=LINE('',#1332,#317);
#231=LINE('',#1335,#318);
#232=LINE('',#1337,#319);
#233=LINE('',#1338,#320);
#234=LINE('',#1345,#321);
#235=LINE('',#1351,#322);
#236=LINE('',#1356,#323);
#237=LINE('',#1364,#324);
#238=LINE('',#1369,#325);
#239=LINE('',#1376,#326);
#240=LINE('',#1382,#327);
#241=LINE('',#1384,#328);
#242=LINE('',#1386,#329);
#243=LINE('',#1387,#330);
#244=LINE('',#1389,#331);
#245=LINE('',#1391,#332);
#246=LINE('',#1393,#333);
#247=LINE('',#1394,#334);
#248=LINE('',#1396,#335);
#249=LINE('',#1398,#336);
#250=LINE('',#1400,#337);
#251=LINE('',#1401,#338);
#252=LINE('',#1403,#339);
#253=LINE('',#1405,#340);
#254=LINE('',#1407,#341);
#255=LINE('',#1410,#342);
#256=LINE('',#1412,#343);
#257=LINE('',#1414,#344);
#258=LINE('',#1416,#345);
#259=LINE('',#1418,#346);
#260=LINE('',#1420,#347);
#261=LINE('',#1422,#348);
#262=VECTOR('',#953,2.00000002980232);
#263=VECTOR('',#956,10.);
#264=VECTOR('',#959,10.);
#265=VECTOR('',#964,10.);
#266=VECTOR('',#977,10.);
#267=VECTOR('',#978,10.);
#268=VECTOR('',#979,10.);
#269=VECTOR('',#980,10.);
#270=VECTOR('',#981,10.);
#271=VECTOR('',#982,10.);
#272=VECTOR('',#983,10.);
#273=VECTOR('',#984,10.);
#274=VECTOR('',#985,10.);
#275=VECTOR('',#986,10.);
#276=VECTOR('',#987,10.);
#277=VECTOR('',#988,10.);
#278=VECTOR('',#989,10.);
#279=VECTOR('',#990,10.);
#280=VECTOR('',#991,10.);
#281=VECTOR('',#992,10.);
#282=VECTOR('',#993,10.);
#283=VECTOR('',#994,10.);
#284=VECTOR('',#995,10.);
#285=VECTOR('',#996,10.);
#286=VECTOR('',#997,10.);
#287=VECTOR('',#1006,10.);
#288=VECTOR('',#1007,10.);
#289=VECTOR('',#1008,10.);
#290=VECTOR('',#1011,10.);
#291=VECTOR('',#1012,10.);
#292=VECTOR('',#1015,10.);
#293=VECTOR('',#1016,10.);
#294=VECTOR('',#1021,2.);
#295=VECTOR('',#1032,2.);
#296=VECTOR('',#1041,1.5);
#297=VECTOR('',#1044,1.5);
#298=VECTOR('',#1047,10.);
#299=VECTOR('',#1048,10.);
#300=VECTOR('',#1049,10.);
#301=VECTOR('',#1052,10.);
#302=VECTOR('',#1053,10.);
#303=VECTOR('',#1054,10.);
#304=VECTOR('',#1057,10.);
#305=VECTOR('',#1058,10.);
#306=VECTOR('',#1059,10.);
#307=VECTOR('',#1062,10.);
#308=VECTOR('',#1065,10.);
#309=VECTOR('',#1066,10.);
#310=VECTOR('',#1067,10.);
#311=VECTOR('',#1068,10.);
#312=VECTOR('',#1071,10.);
#313=VECTOR('',#1072,10.);
#314=VECTOR('',#1073,10.);
#315=VECTOR('',#1076,10.);
#316=VECTOR('',#1077,10.);
#317=VECTOR('',#1080,10.);
#318=VECTOR('',#1083,10.);
#319=VECTOR('',#1084,10.);
#320=VECTOR('',#1085,10.);
#321=VECTOR('',#1092,2.55);
#322=VECTOR('',#1101,1.5);
#323=VECTOR('',#1106,2.55);
#324=VECTOR('',#1117,1.5);
#325=VECTOR('',#1122,2.);
#326=VECTOR('',#1131,2.);
#327=VECTOR('',#1138,10.);
#328=VECTOR('',#1139,10.);
#329=VECTOR('',#1140,10.);
#330=VECTOR('',#1141,10.);
#331=VECTOR('',#1142,10.);
#332=VECTOR('',#1143,10.);
#333=VECTOR('',#1144,10.);
#334=VECTOR('',#1145,10.);
#335=VECTOR('',#1146,10.);
#336=VECTOR('',#1147,10.);
#337=VECTOR('',#1148,10.);
#338=VECTOR('',#1149,10.);
#339=VECTOR('',#1152,10.);
#340=VECTOR('',#1155,10.);
#341=VECTOR('',#1158,10.);
#342=VECTOR('',#1163,10.);
#343=VECTOR('',#1166,10.);
#344=VECTOR('',#1169,10.);
#345=VECTOR('',#1172,10.);
#346=VECTOR('',#1175,10.);
#347=VECTOR('',#1178,10.);
#348=VECTOR('',#1181,10.);
#349=CIRCLE('',#873,2.00000002980232);
#350=CIRCLE('',#874,2.00000002980232);
#351=CIRCLE('',#875,2.00000002980232);
#352=CIRCLE('',#876,2.00000002980232);
#353=CIRCLE('',#878,8.225);
#354=CIRCLE('',#879,2.7);
#355=CIRCLE('',#881,2.7);
#356=CIRCLE('',#884,1.5);
#357=CIRCLE('',#885,1.5);
#358=CIRCLE('',#887,8.225);
#359=CIRCLE('',#891,2.35);
#360=CIRCLE('',#892,2.35);
#361=CIRCLE('',#894,1.5);
#362=CIRCLE('',#896,2.35);
#363=CIRCLE('',#897,2.35);
#364=CIRCLE('',#899,1.5);
#365=CIRCLE('',#911,2.);
#366=CIRCLE('',#913,2.95);
#367=CIRCLE('',#914,2.95);
#368=CIRCLE('',#916,2.);
#369=CIRCLE('',#919,3.15);
#370=CIRCLE('',#920,3.15);
#371=CIRCLE('',#922,2.);
#372=CIRCLE('',#924,2.);
#373=CIRCLE('',#926,2.35);
#374=CIRCLE('',#927,2.35);
#375=CIRCLE('',#930,2.35);
#376=CIRCLE('',#931,2.35);
#377=VERTEX_POINT('',#1188);
#378=VERTEX_POINT('',#1190);
#379=VERTEX_POINT('',#1192);
#380=VERTEX_POINT('',#1194);
#381=VERTEX_POINT('',#1196);
#382=VERTEX_POINT('',#1198);
#383=VERTEX_POINT('',#1202);
#384=VERTEX_POINT('',#1203);
#385=VERTEX_POINT('',#1211);
#386=VERTEX_POINT('',#1213);
#387=VERTEX_POINT('',#1215);
#388=VERTEX_POINT('',#1217);
#389=VERTEX_POINT('',#1219);
#390=VERTEX_POINT('',#1221);
#391=VERTEX_POINT('',#1223);
#392=VERTEX_POINT('',#1225);
#393=VERTEX_POINT('',#1227);
#394=VERTEX_POINT('',#1229);
#395=VERTEX_POINT('',#1231);
#396=VERTEX_POINT('',#1233);
#397=VERTEX_POINT('',#1235);
#398=VERTEX_POINT('',#1237);
#399=VERTEX_POINT('',#1239);
#400=VERTEX_POINT('',#1241);
#401=VERTEX_POINT('',#1243);
#402=VERTEX_POINT('',#1245);
#403=VERTEX_POINT('',#1247);
#404=VERTEX_POINT('',#1249);
#405=VERTEX_POINT('',#1252);
#406=VERTEX_POINT('',#1254);
#407=VERTEX_POINT('',#1258);
#408=VERTEX_POINT('',#1260);
#409=VERTEX_POINT('',#1264);
#410=VERTEX_POINT('',#1268);
#411=VERTEX_POINT('',#1272);
#412=VERTEX_POINT('',#1274);
#413=VERTEX_POINT('',#1278);
#414=VERTEX_POINT('',#1281);
#415=VERTEX_POINT('',#1283);
#416=VERTEX_POINT('',#1287);
#417=VERTEX_POINT('',#1294);
#418=VERTEX_POINT('',#1296);
#419=VERTEX_POINT('',#1300);
#420=VERTEX_POINT('',#1302);
#421=VERTEX_POINT('',#1306);
#422=VERTEX_POINT('',#1308);
#423=VERTEX_POINT('',#1314);
#424=VERTEX_POINT('',#1315);
#425=VERTEX_POINT('',#1317);
#426=VERTEX_POINT('',#1319);
#427=VERTEX_POINT('',#1323);
#428=VERTEX_POINT('',#1325);
#429=VERTEX_POINT('',#1334);
#430=VERTEX_POINT('',#1336);
#431=VERTEX_POINT('',#1339);
#432=VERTEX_POINT('',#1342);
#433=VERTEX_POINT('',#1344);
#434=VERTEX_POINT('',#1348);
#435=VERTEX_POINT('',#1353);
#436=VERTEX_POINT('',#1355);
#437=VERTEX_POINT('',#1359);
#438=VERTEX_POINT('',#1362);
#439=VERTEX_POINT('',#1366);
#440=VERTEX_POINT('',#1368);
#441=VERTEX_POINT('',#1373);
#442=VERTEX_POINT('',#1375);
#443=VERTEX_POINT('',#1380);
#444=VERTEX_POINT('',#1381);
#445=VERTEX_POINT('',#1383);
#446=VERTEX_POINT('',#1385);
#447=VERTEX_POINT('',#1388);
#448=VERTEX_POINT('',#1390);
#449=VERTEX_POINT('',#1392);
#450=VERTEX_POINT('',#1395);
#451=VERTEX_POINT('',#1397);
#452=VERTEX_POINT('',#1399);
#453=EDGE_CURVE('',#377,#377,#349,.T.);
#454=EDGE_CURVE('',#377,#378,#175,.T.);
#455=EDGE_CURVE('',#379,#378,#350,.T.);
#456=EDGE_CURVE('',#380,#379,#176,.T.);
#457=EDGE_CURVE('',#381,#380,#351,.T.);
#458=EDGE_CURVE('',#382,#381,#177,.T.);
#459=EDGE_CURVE('',#378,#382,#352,.T.);
#460=EDGE_CURVE('',#383,#384,#178,.T.);
#461=EDGE_CURVE('',#384,#383,#353,.T.);
#462=EDGE_CURVE('',#381,#380,#354,.T.);
#463=EDGE_CURVE('',#382,#379,#355,.T.);
#464=EDGE_CURVE('',#385,#383,#179,.T.);
#465=EDGE_CURVE('',#384,#386,#180,.T.);
#466=EDGE_CURVE('',#387,#386,#181,.T.);
#467=EDGE_CURVE('',#387,#388,#182,.T.);
#468=EDGE_CURVE('',#388,#389,#183,.T.);
#469=EDGE_CURVE('',#389,#390,#184,.T.);
#470=EDGE_CURVE('',#390,#391,#185,.T.);
#471=EDGE_CURVE('',#391,#392,#186,.T.);
#472=EDGE_CURVE('',#392,#393,#187,.T.);
#473=EDGE_CURVE('',#393,#394,#188,.T.);
#474=EDGE_CURVE('',#394,#395,#189,.T.);
#475=EDGE_CURVE('',#395,#396,#190,.T.);
#476=EDGE_CURVE('',#396,#397,#191,.T.);
#477=EDGE_CURVE('',#397,#398,#192,.T.);
#478=EDGE_CURVE('',#398,#399,#193,.T.);
#479=EDGE_CURVE('',#399,#400,#194,.T.);
#480=EDGE_CURVE('',#400,#401,#195,.T.);
#481=EDGE_CURVE('',#401,#402,#196,.T.);
#482=EDGE_CURVE('',#402,#403,#197,.T.);
#483=EDGE_CURVE('',#403,#404,#198,.T.);
#484=EDGE_CURVE('',#385,#404,#199,.T.);
#485=EDGE_CURVE('',#405,#405,#356,.T.);
#486=EDGE_CURVE('',#406,#406,#357,.T.);
#487=EDGE_CURVE('',#386,#385,#358,.T.);
#488=EDGE_CURVE('',#407,#404,#200,.T.);
#489=EDGE_CURVE('',#407,#408,#201,.T.);
#490=EDGE_CURVE('',#387,#408,#202,.T.);
#491=EDGE_CURVE('',#408,#409,#203,.T.);
#492=EDGE_CURVE('',#409,#388,#204,.T.);
#493=EDGE_CURVE('',#410,#403,#205,.T.);
#494=EDGE_CURVE('',#410,#407,#206,.T.);
#495=EDGE_CURVE('',#411,#411,#359,.T.);
#496=EDGE_CURVE('',#411,#412,#207,.T.);
#497=EDGE_CURVE('',#412,#412,#360,.F.);
#498=EDGE_CURVE('',#413,#413,#361,.T.);
#499=EDGE_CURVE('',#414,#414,#362,.T.);
#500=EDGE_CURVE('',#414,#415,#208,.T.);
#501=EDGE_CURVE('',#415,#415,#363,.F.);
#502=EDGE_CURVE('',#416,#416,#364,.T.);
#503=EDGE_CURVE('',#406,#416,#209,.T.);
#504=EDGE_CURVE('',#405,#413,#210,.T.);
#505=EDGE_CURVE('',#417,#392,#211,.T.);
#506=EDGE_CURVE('',#417,#418,#212,.T.);
#507=EDGE_CURVE('',#418,#393,#213,.T.);
#508=EDGE_CURVE('',#419,#417,#214,.T.);
#509=EDGE_CURVE('',#419,#420,#215,.T.);
#510=EDGE_CURVE('',#420,#418,#216,.T.);
#511=EDGE_CURVE('',#421,#419,#217,.T.);
#512=EDGE_CURVE('',#422,#421,#218,.T.);
#513=EDGE_CURVE('',#422,#420,#219,.T.);
#514=EDGE_CURVE('',#394,#422,#220,.T.);
#515=EDGE_CURVE('',#423,#424,#221,.T.);
#516=EDGE_CURVE('',#423,#425,#222,.T.);
#517=EDGE_CURVE('',#425,#426,#223,.T.);
#518=EDGE_CURVE('',#424,#426,#224,.T.);
#519=EDGE_CURVE('',#427,#423,#225,.T.);
#520=EDGE_CURVE('',#427,#428,#226,.T.);
#521=EDGE_CURVE('',#428,#425,#227,.T.);
#522=EDGE_CURVE('',#427,#399,#228,.T.);
#523=EDGE_CURVE('',#398,#428,#229,.T.);
#524=EDGE_CURVE('',#426,#397,#230,.T.);
#525=EDGE_CURVE('',#429,#424,#231,.T.);
#526=EDGE_CURVE('',#430,#429,#232,.T.);
#527=EDGE_CURVE('',#430,#427,#233,.T.);
#528=EDGE_CURVE('',#431,#431,#365,.T.);
#529=EDGE_CURVE('',#432,#432,#366,.T.);
#530=EDGE_CURVE('',#432,#433,#234,.T.);
#531=EDGE_CURVE('',#433,#433,#367,.F.);
#532=EDGE_CURVE('',#434,#434,#368,.T.);
#533=EDGE_CURVE('',#431,#434,#235,.T.);
#534=EDGE_CURVE('',#435,#435,#369,.T.);
#535=EDGE_CURVE('',#435,#436,#236,.T.);
#536=EDGE_CURVE('',#436,#436,#370,.F.);
#537=EDGE_CURVE('',#437,#437,#371,.T.);
#538=EDGE_CURVE('',#438,#438,#372,.T.);
#539=EDGE_CURVE('',#438,#437,#237,.T.);
#540=EDGE_CURVE('',#439,#439,#373,.T.);
#541=EDGE_CURVE('',#439,#440,#238,.T.);
#542=EDGE_CURVE('',#440,#440,#374,.F.);
#543=EDGE_CURVE('',#441,#441,#375,.T.);
#544=EDGE_CURVE('',#441,#442,#239,.T.);
#545=EDGE_CURVE('',#442,#442,#376,.F.);
#546=EDGE_CURVE('',#443,#444,#240,.T.);
#547=EDGE_CURVE('',#444,#445,#241,.T.);
#548=EDGE_CURVE('',#445,#446,#242,.T.);
#549=EDGE_CURVE('',#446,#409,#243,.T.);
#550=EDGE_CURVE('',#410,#447,#244,.T.);
#551=EDGE_CURVE('',#447,#448,#245,.T.);
#552=EDGE_CURVE('',#448,#449,#246,.T.);
#553=EDGE_CURVE('',#449,#430,#247,.T.);
#554=EDGE_CURVE('',#429,#450,#248,.T.);
#555=EDGE_CURVE('',#450,#451,#249,.T.);
#556=EDGE_CURVE('',#452,#451,#250,.T.);
#557=EDGE_CURVE('',#452,#443,#251,.T.);
#558=EDGE_CURVE('',#447,#402,#252,.T.);
#559=EDGE_CURVE('',#448,#401,#253,.T.);
#560=EDGE_CURVE('',#449,#400,#254,.T.);
#561=EDGE_CURVE('',#450,#396,#255,.T.);
#562=EDGE_CURVE('',#451,#395,#256,.T.);
#563=EDGE_CURVE('',#452,#421,#257,.T.);
#564=EDGE_CURVE('',#443,#417,#258,.T.);
#565=EDGE_CURVE('',#444,#391,#259,.T.);
#566=EDGE_CURVE('',#445,#390,#260,.T.);
#567=EDGE_CURVE('',#446,#389,#261,.T.);
#568=ORIENTED_EDGE('',*,*,#453,.F.);
#569=ORIENTED_EDGE('',*,*,#454,.T.);
#570=ORIENTED_EDGE('',*,*,#455,.F.);
#571=ORIENTED_EDGE('',*,*,#456,.F.);
#572=ORIENTED_EDGE('',*,*,#457,.F.);
#573=ORIENTED_EDGE('',*,*,#458,.F.);
#574=ORIENTED_EDGE('',*,*,#459,.F.);
#575=ORIENTED_EDGE('',*,*,#454,.F.);
#576=ORIENTED_EDGE('',*,*,#460,.F.);
#577=ORIENTED_EDGE('',*,*,#461,.F.);
#578=ORIENTED_EDGE('',*,*,#457,.T.);
#579=ORIENTED_EDGE('',*,*,#462,.F.);
#580=ORIENTED_EDGE('',*,*,#458,.T.);
#581=ORIENTED_EDGE('',*,*,#462,.T.);
#582=ORIENTED_EDGE('',*,*,#456,.T.);
#583=ORIENTED_EDGE('',*,*,#463,.F.);
#584=ORIENTED_EDGE('',*,*,#455,.T.);
#585=ORIENTED_EDGE('',*,*,#459,.T.);
#586=ORIENTED_EDGE('',*,*,#463,.T.);
#587=ORIENTED_EDGE('',*,*,#464,.T.);
#588=ORIENTED_EDGE('',*,*,#460,.T.);
#589=ORIENTED_EDGE('',*,*,#465,.T.);
#590=ORIENTED_EDGE('',*,*,#466,.F.);
#591=ORIENTED_EDGE('',*,*,#467,.T.);
#592=ORIENTED_EDGE('',*,*,#468,.T.);
#593=ORIENTED_EDGE('',*,*,#469,.T.);
#594=ORIENTED_EDGE('',*,*,#470,.T.);
#595=ORIENTED_EDGE('',*,*,#471,.T.);
#596=ORIENTED_EDGE('',*,*,#472,.T.);
#597=ORIENTED_EDGE('',*,*,#473,.T.);
#598=ORIENTED_EDGE('',*,*,#474,.T.);
#599=ORIENTED_EDGE('',*,*,#475,.T.);
#600=ORIENTED_EDGE('',*,*,#476,.T.);
#601=ORIENTED_EDGE('',*,*,#477,.T.);
#602=ORIENTED_EDGE('',*,*,#478,.T.);
#603=ORIENTED_EDGE('',*,*,#479,.T.);
#604=ORIENTED_EDGE('',*,*,#480,.T.);
#605=ORIENTED_EDGE('',*,*,#481,.T.);
#606=ORIENTED_EDGE('',*,*,#482,.T.);
#607=ORIENTED_EDGE('',*,*,#483,.T.);
#608=ORIENTED_EDGE('',*,*,#484,.F.);
#609=ORIENTED_EDGE('',*,*,#485,.T.);
#610=ORIENTED_EDGE('',*,*,#486,.T.);
#611=ORIENTED_EDGE('',*,*,#487,.T.);
#612=ORIENTED_EDGE('',*,*,#484,.T.);
#613=ORIENTED_EDGE('',*,*,#488,.F.);
#614=ORIENTED_EDGE('',*,*,#489,.T.);
#615=ORIENTED_EDGE('',*,*,#490,.F.);
#616=ORIENTED_EDGE('',*,*,#466,.T.);
#617=ORIENTED_EDGE('',*,*,#490,.T.);
#618=ORIENTED_EDGE('',*,*,#491,.T.);
#619=ORIENTED_EDGE('',*,*,#492,.T.);
#620=ORIENTED_EDGE('',*,*,#467,.F.);
#621=ORIENTED_EDGE('',*,*,#488,.T.);
#622=ORIENTED_EDGE('',*,*,#483,.F.);
#623=ORIENTED_EDGE('',*,*,#493,.F.);
#624=ORIENTED_EDGE('',*,*,#494,.T.);
#625=ORIENTED_EDGE('',*,*,#495,.F.);
#626=ORIENTED_EDGE('',*,*,#496,.T.);
#627=ORIENTED_EDGE('',*,*,#497,.T.);
#628=ORIENTED_EDGE('',*,*,#496,.F.);
#629=ORIENTED_EDGE('',*,*,#497,.F.);
#630=ORIENTED_EDGE('',*,*,#498,.F.);
#631=ORIENTED_EDGE('',*,*,#499,.F.);
#632=ORIENTED_EDGE('',*,*,#500,.T.);
#633=ORIENTED_EDGE('',*,*,#501,.T.);
#634=ORIENTED_EDGE('',*,*,#500,.F.);
#635=ORIENTED_EDGE('',*,*,#501,.F.);
#636=ORIENTED_EDGE('',*,*,#502,.F.);
#637=ORIENTED_EDGE('',*,*,#486,.F.);
#638=ORIENTED_EDGE('',*,*,#503,.T.);
#639=ORIENTED_EDGE('',*,*,#502,.T.);
#640=ORIENTED_EDGE('',*,*,#503,.F.);
#641=ORIENTED_EDGE('',*,*,#485,.F.);
#642=ORIENTED_EDGE('',*,*,#504,.T.);
#643=ORIENTED_EDGE('',*,*,#498,.T.);
#644=ORIENTED_EDGE('',*,*,#504,.F.);
#645=ORIENTED_EDGE('',*,*,#505,.F.);
#646=ORIENTED_EDGE('',*,*,#506,.T.);
#647=ORIENTED_EDGE('',*,*,#507,.T.);
#648=ORIENTED_EDGE('',*,*,#472,.F.);
#649=ORIENTED_EDGE('',*,*,#508,.F.);
#650=ORIENTED_EDGE('',*,*,#509,.T.);
#651=ORIENTED_EDGE('',*,*,#510,.T.);
#652=ORIENTED_EDGE('',*,*,#506,.F.);
#653=ORIENTED_EDGE('',*,*,#511,.F.);
#654=ORIENTED_EDGE('',*,*,#512,.F.);
#655=ORIENTED_EDGE('',*,*,#513,.T.);
#656=ORIENTED_EDGE('',*,*,#509,.F.);
#657=ORIENTED_EDGE('',*,*,#473,.F.);
#658=ORIENTED_EDGE('',*,*,#507,.F.);
#659=ORIENTED_EDGE('',*,*,#510,.F.);
#660=ORIENTED_EDGE('',*,*,#513,.F.);
#661=ORIENTED_EDGE('',*,*,#514,.F.);
#662=ORIENTED_EDGE('',*,*,#515,.F.);
#663=ORIENTED_EDGE('',*,*,#516,.T.);
#664=ORIENTED_EDGE('',*,*,#517,.T.);
#665=ORIENTED_EDGE('',*,*,#518,.F.);
#666=ORIENTED_EDGE('',*,*,#519,.F.);
#667=ORIENTED_EDGE('',*,*,#520,.T.);
#668=ORIENTED_EDGE('',*,*,#521,.T.);
#669=ORIENTED_EDGE('',*,*,#516,.F.);
#670=ORIENTED_EDGE('',*,*,#522,.T.);
#671=ORIENTED_EDGE('',*,*,#478,.F.);
#672=ORIENTED_EDGE('',*,*,#523,.T.);
#673=ORIENTED_EDGE('',*,*,#520,.F.);
#674=ORIENTED_EDGE('',*,*,#524,.F.);
#675=ORIENTED_EDGE('',*,*,#517,.F.);
#676=ORIENTED_EDGE('',*,*,#521,.F.);
#677=ORIENTED_EDGE('',*,*,#523,.F.);
#678=ORIENTED_EDGE('',*,*,#477,.F.);
#679=ORIENTED_EDGE('',*,*,#519,.T.);
#680=ORIENTED_EDGE('',*,*,#515,.T.);
#681=ORIENTED_EDGE('',*,*,#525,.F.);
#682=ORIENTED_EDGE('',*,*,#526,.F.);
#683=ORIENTED_EDGE('',*,*,#527,.T.);
#684=ORIENTED_EDGE('',*,*,#528,.T.);
#685=ORIENTED_EDGE('',*,*,#529,.F.);
#686=ORIENTED_EDGE('',*,*,#530,.T.);
#687=ORIENTED_EDGE('',*,*,#531,.T.);
#688=ORIENTED_EDGE('',*,*,#530,.F.);
#689=ORIENTED_EDGE('',*,*,#531,.F.);
#690=ORIENTED_EDGE('',*,*,#532,.F.);
#691=ORIENTED_EDGE('',*,*,#528,.F.);
#692=ORIENTED_EDGE('',*,*,#533,.T.);
#693=ORIENTED_EDGE('',*,*,#532,.T.);
#694=ORIENTED_EDGE('',*,*,#533,.F.);
#695=ORIENTED_EDGE('',*,*,#534,.F.);
#696=ORIENTED_EDGE('',*,*,#535,.T.);
#697=ORIENTED_EDGE('',*,*,#536,.T.);
#698=ORIENTED_EDGE('',*,*,#535,.F.);
#699=ORIENTED_EDGE('',*,*,#536,.F.);
#700=ORIENTED_EDGE('',*,*,#537,.F.);
#701=ORIENTED_EDGE('',*,*,#538,.F.);
#702=ORIENTED_EDGE('',*,*,#539,.T.);
#703=ORIENTED_EDGE('',*,*,#537,.T.);
#704=ORIENTED_EDGE('',*,*,#539,.F.);
#705=ORIENTED_EDGE('',*,*,#540,.F.);
#706=ORIENTED_EDGE('',*,*,#541,.T.);
#707=ORIENTED_EDGE('',*,*,#542,.T.);
#708=ORIENTED_EDGE('',*,*,#541,.F.);
#709=ORIENTED_EDGE('',*,*,#542,.F.);
#710=ORIENTED_EDGE('',*,*,#543,.F.);
#711=ORIENTED_EDGE('',*,*,#544,.T.);
#712=ORIENTED_EDGE('',*,*,#545,.T.);
#713=ORIENTED_EDGE('',*,*,#544,.F.);
#714=ORIENTED_EDGE('',*,*,#545,.F.);
#715=ORIENTED_EDGE('',*,*,#546,.T.);
#716=ORIENTED_EDGE('',*,*,#547,.T.);
#717=ORIENTED_EDGE('',*,*,#548,.T.);
#718=ORIENTED_EDGE('',*,*,#549,.T.);
#719=ORIENTED_EDGE('',*,*,#491,.F.);
#720=ORIENTED_EDGE('',*,*,#489,.F.);
#721=ORIENTED_EDGE('',*,*,#494,.F.);
#722=ORIENTED_EDGE('',*,*,#550,.T.);
#723=ORIENTED_EDGE('',*,*,#551,.T.);
#724=ORIENTED_EDGE('',*,*,#552,.T.);
#725=ORIENTED_EDGE('',*,*,#553,.T.);
#726=ORIENTED_EDGE('',*,*,#526,.T.);
#727=ORIENTED_EDGE('',*,*,#554,.T.);
#728=ORIENTED_EDGE('',*,*,#555,.T.);
#729=ORIENTED_EDGE('',*,*,#556,.F.);
#730=ORIENTED_EDGE('',*,*,#557,.T.);
#731=ORIENTED_EDGE('',*,*,#495,.T.);
#732=ORIENTED_EDGE('',*,*,#499,.T.);
#733=ORIENTED_EDGE('',*,*,#550,.F.);
#734=ORIENTED_EDGE('',*,*,#493,.T.);
#735=ORIENTED_EDGE('',*,*,#482,.F.);
#736=ORIENTED_EDGE('',*,*,#558,.F.);
#737=ORIENTED_EDGE('',*,*,#551,.F.);
#738=ORIENTED_EDGE('',*,*,#558,.T.);
#739=ORIENTED_EDGE('',*,*,#481,.F.);
#740=ORIENTED_EDGE('',*,*,#559,.F.);
#741=ORIENTED_EDGE('',*,*,#552,.F.);
#742=ORIENTED_EDGE('',*,*,#559,.T.);
#743=ORIENTED_EDGE('',*,*,#480,.F.);
#744=ORIENTED_EDGE('',*,*,#560,.F.);
#745=ORIENTED_EDGE('',*,*,#553,.F.);
#746=ORIENTED_EDGE('',*,*,#560,.T.);
#747=ORIENTED_EDGE('',*,*,#479,.F.);
#748=ORIENTED_EDGE('',*,*,#522,.F.);
#749=ORIENTED_EDGE('',*,*,#527,.F.);
#750=ORIENTED_EDGE('',*,*,#524,.T.);
#751=ORIENTED_EDGE('',*,*,#476,.F.);
#752=ORIENTED_EDGE('',*,*,#561,.F.);
#753=ORIENTED_EDGE('',*,*,#554,.F.);
#754=ORIENTED_EDGE('',*,*,#525,.T.);
#755=ORIENTED_EDGE('',*,*,#518,.T.);
#756=ORIENTED_EDGE('',*,*,#555,.F.);
#757=ORIENTED_EDGE('',*,*,#561,.T.);
#758=ORIENTED_EDGE('',*,*,#475,.F.);
#759=ORIENTED_EDGE('',*,*,#562,.F.);
#760=ORIENTED_EDGE('',*,*,#453,.T.);
#761=ORIENTED_EDGE('',*,*,#529,.T.);
#762=ORIENTED_EDGE('',*,*,#534,.T.);
#763=ORIENTED_EDGE('',*,*,#540,.T.);
#764=ORIENTED_EDGE('',*,*,#543,.T.);
#765=ORIENTED_EDGE('',*,*,#512,.T.);
#766=ORIENTED_EDGE('',*,*,#563,.F.);
#767=ORIENTED_EDGE('',*,*,#556,.T.);
#768=ORIENTED_EDGE('',*,*,#562,.T.);
#769=ORIENTED_EDGE('',*,*,#474,.F.);
#770=ORIENTED_EDGE('',*,*,#514,.T.);
#771=ORIENTED_EDGE('',*,*,#508,.T.);
#772=ORIENTED_EDGE('',*,*,#564,.F.);
#773=ORIENTED_EDGE('',*,*,#557,.F.);
#774=ORIENTED_EDGE('',*,*,#563,.T.);
#775=ORIENTED_EDGE('',*,*,#511,.T.);
#776=ORIENTED_EDGE('',*,*,#538,.T.);
#777=ORIENTED_EDGE('',*,*,#546,.F.);
#778=ORIENTED_EDGE('',*,*,#564,.T.);
#779=ORIENTED_EDGE('',*,*,#505,.T.);
#780=ORIENTED_EDGE('',*,*,#471,.F.);
#781=ORIENTED_EDGE('',*,*,#565,.F.);
#782=ORIENTED_EDGE('',*,*,#547,.F.);
#783=ORIENTED_EDGE('',*,*,#565,.T.);
#784=ORIENTED_EDGE('',*,*,#470,.F.);
#785=ORIENTED_EDGE('',*,*,#566,.F.);
#786=ORIENTED_EDGE('',*,*,#548,.F.);
#787=ORIENTED_EDGE('',*,*,#566,.T.);
#788=ORIENTED_EDGE('',*,*,#469,.F.);
#789=ORIENTED_EDGE('',*,*,#567,.F.);
#790=ORIENTED_EDGE('',*,*,#549,.F.);
#791=ORIENTED_EDGE('',*,*,#567,.T.);
#792=ORIENTED_EDGE('',*,*,#468,.F.);
#793=ORIENTED_EDGE('',*,*,#492,.F.);
#794=ORIENTED_EDGE('',*,*,#464,.F.);
#795=ORIENTED_EDGE('',*,*,#487,.F.);
#796=ORIENTED_EDGE('',*,*,#465,.F.);
#797=ORIENTED_EDGE('',*,*,#461,.T.);
#798=CYLINDRICAL_SURFACE('',#872,2.00000002980232);
#799=CYLINDRICAL_SURFACE('',#880,2.7);
#800=CYLINDRICAL_SURFACE('',#890,2.35);
#801=CYLINDRICAL_SURFACE('',#895,2.35);
#802=CYLINDRICAL_SURFACE('',#900,1.5);
#803=CYLINDRICAL_SURFACE('',#901,1.5);
#804=CYLINDRICAL_SURFACE('',#912,2.95);
#805=CYLINDRICAL_SURFACE('',#917,2.);
#806=CYLINDRICAL_SURFACE('',#918,3.15);
#807=CYLINDRICAL_SURFACE('',#923,2.);
#808=CYLINDRICAL_SURFACE('',#925,2.35);
#809=CYLINDRICAL_SURFACE('',#929,2.35);
#810=CYLINDRICAL_SURFACE('',#946,8.225);
#811=ADVANCED_FACE('',(#65),#798,.F.);
#812=ADVANCED_FACE('',(#66,#15),#31,.F.);
#813=ADVANCED_FACE('',(#67),#799,.T.);
#814=ADVANCED_FACE('',(#68),#32,.F.);
#815=ADVANCED_FACE('',(#69,#16,#17),#33,.T.);
#816=ADVANCED_FACE('',(#70),#34,.T.);
#817=ADVANCED_FACE('',(#71),#35,.T.);
#818=ADVANCED_FACE('',(#72),#36,.T.);
#819=ADVANCED_FACE('',(#73),#800,.F.);
#820=ADVANCED_FACE('',(#74,#18),#37,.F.);
#821=ADVANCED_FACE('',(#75),#801,.F.);
#822=ADVANCED_FACE('',(#76,#19),#38,.F.);
#823=ADVANCED_FACE('',(#77),#802,.F.);
#824=ADVANCED_FACE('',(#78),#803,.F.);
#825=ADVANCED_FACE('',(#79),#39,.F.);
#826=ADVANCED_FACE('',(#80),#40,.F.);
#827=ADVANCED_FACE('',(#81),#41,.F.);
#828=ADVANCED_FACE('',(#82),#42,.F.);
#829=ADVANCED_FACE('',(#83),#43,.F.);
#830=ADVANCED_FACE('',(#84),#44,.F.);
#831=ADVANCED_FACE('',(#85),#45,.F.);
#832=ADVANCED_FACE('',(#86),#46,.F.);
#833=ADVANCED_FACE('',(#87,#20),#47,.T.);
#834=ADVANCED_FACE('',(#88),#804,.F.);
#835=ADVANCED_FACE('',(#89,#21),#48,.F.);
#836=ADVANCED_FACE('',(#90),#805,.F.);
#837=ADVANCED_FACE('',(#91),#806,.F.);
#838=ADVANCED_FACE('',(#92,#22),#49,.F.);
#839=ADVANCED_FACE('',(#93),#807,.F.);
#840=ADVANCED_FACE('',(#94),#808,.F.);
#841=ADVANCED_FACE('',(#95),#50,.F.);
#842=ADVANCED_FACE('',(#96),#809,.F.);
#843=ADVANCED_FACE('',(#97),#51,.F.);
#844=ADVANCED_FACE('',(#98,#23,#24),#52,.T.);
#845=ADVANCED_FACE('',(#99),#53,.T.);
#846=ADVANCED_FACE('',(#100),#54,.T.);
#847=ADVANCED_FACE('',(#101),#55,.T.);
#848=ADVANCED_FACE('',(#102),#56,.T.);
#849=ADVANCED_FACE('',(#103),#57,.T.);
#850=ADVANCED_FACE('',(#104,#25,#26,#27,#28,#29),#58,.T.);
#851=ADVANCED_FACE('',(#105),#59,.T.);
#852=ADVANCED_FACE('',(#106,#30),#60,.T.);
#853=ADVANCED_FACE('',(#107),#61,.T.);
#854=ADVANCED_FACE('',(#108),#62,.T.);
#855=ADVANCED_FACE('',(#109),#63,.T.);
#856=ADVANCED_FACE('',(#110),#64,.T.);
#857=ADVANCED_FACE('',(#111),#810,.F.);
#858=CLOSED_SHELL('',(#811,#812,#813,#814,#815,#816,#817,#818,#819,#820,
#821,#822,#823,#824,#825,#826,#827,#828,#829,#830,#831,#832,#833,#834,#835,
#836,#837,#838,#839,#840,#841,#842,#843,#844,#845,#846,#847,#848,#849,#850,
#851,#852,#853,#854,#855,#856,#857));
#859=DERIVED_UNIT_ELEMENT(#861,1.);
#860=DERIVED_UNIT_ELEMENT(#1430,-3.);
#861=(
MASS_UNIT()
NAMED_UNIT(*)
SI_UNIT(.KILO.,.GRAM.)
);
#862=DERIVED_UNIT((#859,#860));
#863=MEASURE_REPRESENTATION_ITEM('density measure',
POSITIVE_RATIO_MEASURE(7850.),#862);
#864=PROPERTY_DEFINITION_REPRESENTATION(#869,#866);
#865=PROPERTY_DEFINITION_REPRESENTATION(#870,#867);
#866=REPRESENTATION('material name',(#868),#1427);
#867=REPRESENTATION('density',(#863),#1427);
#868=DESCRIPTIVE_REPRESENTATION_ITEM('Steel','Steel');
#869=PROPERTY_DEFINITION('material property','material name',#1437);
#870=PROPERTY_DEFINITION('material property','density of part',#1437);
#871=AXIS2_PLACEMENT_3D('',#1186,#947,#948);
#872=AXIS2_PLACEMENT_3D('',#1187,#949,#950);
#873=AXIS2_PLACEMENT_3D('',#1189,#951,#952);
#874=AXIS2_PLACEMENT_3D('',#1193,#954,#955);
#875=AXIS2_PLACEMENT_3D('',#1197,#957,#958);
#876=AXIS2_PLACEMENT_3D('',#1200,#960,#961);
#877=AXIS2_PLACEMENT_3D('',#1201,#962,#963);
#878=AXIS2_PLACEMENT_3D('',#1205,#965,#966);
#879=AXIS2_PLACEMENT_3D('',#1206,#967,#968);
#880=AXIS2_PLACEMENT_3D('',#1207,#969,#970);
#881=AXIS2_PLACEMENT_3D('',#1208,#971,#972);
#882=AXIS2_PLACEMENT_3D('',#1209,#973,#974);
#883=AXIS2_PLACEMENT_3D('',#1210,#975,#976);
#884=AXIS2_PLACEMENT_3D('',#1253,#998,#999);
#885=AXIS2_PLACEMENT_3D('',#1255,#1000,#1001);
#886=AXIS2_PLACEMENT_3D('',#1256,#1002,#1003);
#887=AXIS2_PLACEMENT_3D('',#1257,#1004,#1005);
#888=AXIS2_PLACEMENT_3D('',#1263,#1009,#1010);
#889=AXIS2_PLACEMENT_3D('',#1267,#1013,#1014);
#890=AXIS2_PLACEMENT_3D('',#1271,#1017,#1018);
#891=AXIS2_PLACEMENT_3D('',#1273,#1019,#1020);
#892=AXIS2_PLACEMENT_3D('',#1276,#1022,#1023);
#893=AXIS2_PLACEMENT_3D('',#1277,#1024,#1025);
#894=AXIS2_PLACEMENT_3D('',#1279,#1026,#1027);
#895=AXIS2_PLACEMENT_3D('',#1280,#1028,#1029);
#896=AXIS2_PLACEMENT_3D('',#1282,#1030,#1031);
#897=AXIS2_PLACEMENT_3D('',#1285,#1033,#1034);
#898=AXIS2_PLACEMENT_3D('',#1286,#1035,#1036);
#899=AXIS2_PLACEMENT_3D('',#1288,#1037,#1038);
#900=AXIS2_PLACEMENT_3D('',#1289,#1039,#1040);
#901=AXIS2_PLACEMENT_3D('',#1291,#1042,#1043);
#902=AXIS2_PLACEMENT_3D('',#1293,#1045,#1046);
#903=AXIS2_PLACEMENT_3D('',#1299,#1050,#1051);
#904=AXIS2_PLACEMENT_3D('',#1305,#1055,#1056);
#905=AXIS2_PLACEMENT_3D('',#1311,#1060,#1061);
#906=AXIS2_PLACEMENT_3D('',#1313,#1063,#1064);
#907=AXIS2_PLACEMENT_3D('',#1322,#1069,#1070);
#908=AXIS2_PLACEMENT_3D('',#1328,#1074,#1075);
#909=AXIS2_PLACEMENT_3D('',#1331,#1078,#1079);
#910=AXIS2_PLACEMENT_3D('',#1333,#1081,#1082);
#911=AXIS2_PLACEMENT_3D('',#1340,#1086,#1087);
#912=AXIS2_PLACEMENT_3D('',#1341,#1088,#1089);
#913=AXIS2_PLACEMENT_3D('',#1343,#1090,#1091);
#914=AXIS2_PLACEMENT_3D('',#1346,#1093,#1094);
#915=AXIS2_PLACEMENT_3D('',#1347,#1095,#1096);
#916=AXIS2_PLACEMENT_3D('',#1349,#1097,#1098);
#917=AXIS2_PLACEMENT_3D('',#1350,#1099,#1100);
#918=AXIS2_PLACEMENT_3D('',#1352,#1102,#1103);
#919=AXIS2_PLACEMENT_3D('',#1354,#1104,#1105);
#920=AXIS2_PLACEMENT_3D('',#1357,#1107,#1108);
#921=AXIS2_PLACEMENT_3D('',#1358,#1109,#1110);
#922=AXIS2_PLACEMENT_3D('',#1360,#1111,#1112);
#923=AXIS2_PLACEMENT_3D('',#1361,#1113,#1114);
#924=AXIS2_PLACEMENT_3D('',#1363,#1115,#1116);
#925=AXIS2_PLACEMENT_3D('',#1365,#1118,#1119);
#926=AXIS2_PLACEMENT_3D('',#1367,#1120,#1121);
#927=AXIS2_PLACEMENT_3D('',#1370,#1123,#1124);
#928=AXIS2_PLACEMENT_3D('',#1371,#1125,#1126);
#929=AXIS2_PLACEMENT_3D('',#1372,#1127,#1128);
#930=AXIS2_PLACEMENT_3D('',#1374,#1129,#1130);
#931=AXIS2_PLACEMENT_3D('',#1377,#1132,#1133);
#932=AXIS2_PLACEMENT_3D('',#1378,#1134,#1135);
#933=AXIS2_PLACEMENT_3D('',#1379,#1136,#1137);
#934=AXIS2_PLACEMENT_3D('',#1402,#1150,#1151);
#935=AXIS2_PLACEMENT_3D('',#1404,#1153,#1154);
#936=AXIS2_PLACEMENT_3D('',#1406,#1156,#1157);
#937=AXIS2_PLACEMENT_3D('',#1408,#1159,#1160);
#938=AXIS2_PLACEMENT_3D('',#1409,#1161,#1162);
#939=AXIS2_PLACEMENT_3D('',#1411,#1164,#1165);
#940=AXIS2_PLACEMENT_3D('',#1413,#1167,#1168);
#941=AXIS2_PLACEMENT_3D('',#1415,#1170,#1171);
#942=AXIS2_PLACEMENT_3D('',#1417,#1173,#1174);
#943=AXIS2_PLACEMENT_3D('',#1419,#1176,#1177);
#944=AXIS2_PLACEMENT_3D('',#1421,#1179,#1180);
#945=AXIS2_PLACEMENT_3D('',#1423,#1182,#1183);
#946=AXIS2_PLACEMENT_3D('',#1424,#1184,#1185);
#947=DIRECTION('axis',(0.,0.,1.));
#948=DIRECTION('refdir',(1.,0.,0.));
#949=DIRECTION('center_axis',(0.,0.,-1.));
#950=DIRECTION('ref_axis',(-1.,0.,0.));
#951=DIRECTION('center_axis',(0.,0.,-1.));
#952=DIRECTION('ref_axis',(-1.,0.,0.));
#953=DIRECTION('',(0.,0.,-1.));
#954=DIRECTION('center_axis',(0.,0.,1.));
#955=DIRECTION('ref_axis',(-1.,0.,0.));
#956=DIRECTION('',(0.,0.,-1.));
#957=DIRECTION('center_axis',(0.,0.,1.));
#958=DIRECTION('ref_axis',(-1.,0.,0.));
#959=DIRECTION('',(0.,0.,1.));
#960=DIRECTION('center_axis',(0.,0.,1.));
#961=DIRECTION('ref_axis',(-1.,0.,0.));
#962=DIRECTION('center_axis',(0.,0.,1.));
#963=DIRECTION('ref_axis',(-1.,0.,0.));
#964=DIRECTION('',(1.,0.,0.));
#965=DIRECTION('center_axis',(0.,0.,1.));
#966=DIRECTION('ref_axis',(-1.,0.,0.));
#967=DIRECTION('center_axis',(0.,0.,-1.));
#968=DIRECTION('ref_axis',(1.,0.,0.));
#969=DIRECTION('center_axis',(0.,0.,-1.));
#970=DIRECTION('ref_axis',(0.323484200685737,0.946233571538608,0.));
#971=DIRECTION('center_axis',(0.,0.,-1.));
#972=DIRECTION('ref_axis',(-1.,0.,0.));
#973=DIRECTION('center_axis',(0.,0.,1.));
#974=DIRECTION('ref_axis',(-1.,0.,0.));
#975=DIRECTION('center_axis',(0.,-1.,0.));
#976=DIRECTION('ref_axis',(0.,0.,-1.));
#977=DIRECTION('',(0.,0.,1.));
#978=DIRECTION('',(0.,0.,-1.));
#979=DIRECTION('',(-1.,0.,0.));
#980=DIRECTION('',(0.,0.,-1.));
#981=DIRECTION('',(1.,-6.08341096404342E-15,0.));
#982=DIRECTION('',(0.865957778047843,0.,-0.500117112923006));
#983=DIRECTION('',(0.,0.,-1.));
#984=DIRECTION('',(0.854888279509623,0.,-0.518812133201486));
#985=DIRECTION('',(0.,0.,1.));
#986=DIRECTION('',(1.,0.,0.));
#987=DIRECTION('',(0.,0.,1.));
#988=DIRECTION('',(-1.,0.,0.));
#989=DIRECTION('',(0.,0.,-1.));
#990=DIRECTION('',(1.,0.,0.));
#991=DIRECTION('',(0.,0.,-1.));
#992=DIRECTION('',(0.866331205263144,0.,0.499469961846864));
#993=DIRECTION('',(1.09139766003185E-6,0.,0.999999999999404));
#994=DIRECTION('',(0.866409306080487,0.,0.499334471408824));
#995=DIRECTION('',(1.,6.09685509397533E-15,0.));
#996=DIRECTION('',(0.,0.,1.));
#997=DIRECTION('',(-1.,0.,0.));
#998=DIRECTION('center_axis',(0.,1.,0.));
#999=DIRECTION('ref_axis',(0.,0.,-1.));
#1000=DIRECTION('center_axis',(0.,1.,0.));
#1001=DIRECTION('ref_axis',(0.,0.,-1.));
#1002=DIRECTION('center_axis',(0.,0.,-1.));
#1003=DIRECTION('ref_axis',(1.,0.,0.));
#1004=DIRECTION('center_axis',(0.,0.,1.));
#1005=DIRECTION('ref_axis',(-1.,0.,0.));
#1006=DIRECTION('',(0.,-1.,0.));
#1007=DIRECTION('',(1.,0.,0.));
#1008=DIRECTION('',(0.,1.,0.));
#1009=DIRECTION('center_axis',(-1.,0.,0.));
#1010=DIRECTION('ref_axis',(0.,0.,-1.));
#1011=DIRECTION('',(0.,0.,-1.));
#1012=DIRECTION('',(0.,-1.,0.));
#1013=DIRECTION('center_axis',(1.,0.,0.));
#1014=DIRECTION('ref_axis',(0.,0.,1.));
#1015=DIRECTION('',(0.,-1.,0.));
#1016=DIRECTION('',(0.,0.,1.));
#1017=DIRECTION('center_axis',(0.,-1.,0.));
#1018=DIRECTION('ref_axis',(0.,0.,1.));
#1019=DIRECTION('center_axis',(0.,-1.,0.));
#1020=DIRECTION('ref_axis',(0.,0.,1.));
#1021=DIRECTION('',(0.,-1.,0.));
#1022=DIRECTION('center_axis',(0.,1.,0.));
#1023=DIRECTION('ref_axis',(0.,0.,1.));
#1024=DIRECTION('center_axis',(0.,-1.,0.));
#1025=DIRECTION('ref_axis',(0.,0.,1.));
#1026=DIRECTION('center_axis',(0.,1.,0.));
#1027=DIRECTION('ref_axis',(0.,0.,-1.));
#1028=DIRECTION('center_axis',(0.,-1.,0.));
#1029=DIRECTION('ref_axis',(0.,0.,1.));
#1030=DIRECTION('center_axis',(0.,-1.,0.));
#1031=DIRECTION('ref_axis',(0.,0.,1.));
#1032=DIRECTION('',(0.,-1.,0.));
#1033=DIRECTION('center_axis',(0.,1.,0.));
#1034=DIRECTION('ref_axis',(0.,0.,1.));
#1035=DIRECTION('center_axis',(0.,-1.,0.));
#1036=DIRECTION('ref_axis',(0.,0.,1.));
#1037=DIRECTION('center_axis',(0.,1.,0.));
#1038=DIRECTION('ref_axis',(0.,0.,-1.));
#1039=DIRECTION('center_axis',(0.,1.,0.));
#1040=DIRECTION('ref_axis',(0.,0.,-1.));
#1041=DIRECTION('',(0.,1.,0.));
#1042=DIRECTION('center_axis',(0.,1.,0.));
#1043=DIRECTION('ref_axis',(0.,0.,-1.));
#1044=DIRECTION('',(0.,1.,0.));
#1045=DIRECTION('center_axis',(-1.,0.,0.));
#1046=DIRECTION('ref_axis',(0.,-1.,0.));
#1047=DIRECTION('',(0.,-1.,0.));
#1048=DIRECTION('',(0.,0.,1.));
#1049=DIRECTION('',(0.,-1.,0.));
#1050=DIRECTION('center_axis',(0.,1.,0.));
#1051=DIRECTION('ref_axis',(-1.,0.,0.));
#1052=DIRECTION('',(-1.,0.,0.));
#1053=DIRECTION('',(0.,0.,1.));
#1054=DIRECTION('',(-1.,0.,0.));
#1055=DIRECTION('center_axis',(-0.504472156282112,0.863427960825961,0.));
#1056=DIRECTION('ref_axis',(-0.863427960825961,-0.504472156282112,0.));
#1057=DIRECTION('',(-0.863427960825961,-0.504472156282112,0.));
#1058=DIRECTION('',(0.,0.,-1.));
#1059=DIRECTION('',(-0.863427960825961,-0.504472156282112,0.));
#1060=DIRECTION('center_axis',(0.,0.,1.));
#1061=DIRECTION('ref_axis',(1.,0.,0.));
#1062=DIRECTION('',(0.,1.,0.));
#1063=DIRECTION('center_axis',(0.503679391370166,0.863890659000882,0.));
#1064=DIRECTION('ref_axis',(-0.863890659000882,0.503679391370166,0.));
#1065=DIRECTION('',(-0.863890659000882,0.503679391370166,0.));
#1066=DIRECTION('',(0.,0.,1.));
#1067=DIRECTION('',(-0.863890659000882,0.503679391370166,0.));
#1068=DIRECTION('',(0.,0.,1.));
#1069=DIRECTION('center_axis',(1.52058121752591E-7,0.999999999999988,0.));
#1070=DIRECTION('ref_axis',(-0.999999999999988,1.52058121752591E-7,0.));
#1071=DIRECTION('',(-0.999999999999988,1.52058121752591E-7,0.));
#1072=DIRECTION('',(0.,0.,1.));
#1073=DIRECTION('',(-0.999999999999988,1.52058121752591E-7,0.));
#1074=DIRECTION('center_axis',(1.,1.77635686057607E-16,0.));
#1075=DIRECTION('ref_axis',(-1.77635686057607E-16,1.,0.));
#1076=DIRECTION('',(0.,-1.,0.));
#1077=DIRECTION('',(-1.77635686057607E-16,1.,0.));
#1078=DIRECTION('center_axis',(0.,0.,1.));
#1079=DIRECTION('ref_axis',(1.,0.,0.));
#1080=DIRECTION('',(0.,-1.,0.));
#1081=DIRECTION('center_axis',(0.,0.,-1.));
#1082=DIRECTION('ref_axis',(1.,0.,0.));
#1083=DIRECTION('',(0.,-1.,0.));
#1084=DIRECTION('',(-1.,0.,0.));
#1085=DIRECTION('',(0.,-1.,0.));
#1086=DIRECTION('center_axis',(0.,0.,1.));
#1087=DIRECTION('ref_axis',(-1.,0.,0.));
#1088=DIRECTION('center_axis',(0.,0.,-1.));
#1089=DIRECTION('ref_axis',(1.,0.,0.));
#1090=DIRECTION('center_axis',(0.,0.,-1.));
#1091=DIRECTION('ref_axis',(1.,0.,0.));
#1092=DIRECTION('',(0.,0.,-1.));
#1093=DIRECTION('center_axis',(0.,0.,1.));
#1094=DIRECTION('ref_axis',(1.,0.,0.));
#1095=DIRECTION('center_axis',(0.,0.,-1.));
#1096=DIRECTION('ref_axis',(1.,0.,0.));
#1097=DIRECTION('center_axis',(0.,0.,1.));
#1098=DIRECTION('ref_axis',(-1.,0.,0.));
#1099=DIRECTION('center_axis',(0.,0.,1.));
#1100=DIRECTION('ref_axis',(-1.,0.,0.));
#1101=DIRECTION('',(0.,0.,1.));
#1102=DIRECTION('center_axis',(0.,0.,-1.));
#1103=DIRECTION('ref_axis',(1.,0.,0.));
#1104=DIRECTION('center_axis',(0.,0.,-1.));
#1105=DIRECTION('ref_axis',(1.,0.,0.));
#1106=DIRECTION('',(0.,0.,-1.));
#1107=DIRECTION('center_axis',(0.,0.,1.));
#1108=DIRECTION('ref_axis',(1.,0.,0.));
#1109=DIRECTION('center_axis',(0.,0.,-1.));
#1110=DIRECTION('ref_axis',(1.,0.,0.));
#1111=DIRECTION('center_axis',(0.,0.,1.));
#1112=DIRECTION('ref_axis',(-1.,0.,0.));
#1113=DIRECTION('center_axis',(0.,0.,1.));
#1114=DIRECTION('ref_axis',(-1.,0.,0.));
#1115=DIRECTION('center_axis',(0.,0.,1.));
#1116=DIRECTION('ref_axis',(-1.,0.,0.));
#1117=DIRECTION('',(0.,0.,1.));
#1118=DIRECTION('center_axis',(0.,0.,-1.));
#1119=DIRECTION('ref_axis',(1.,0.,0.));
#1120=DIRECTION('center_axis',(0.,0.,-1.));
#1121=DIRECTION('ref_axis',(1.,0.,0.));
#1122=DIRECTION('',(0.,0.,-1.));
#1123=DIRECTION('center_axis',(0.,0.,1.));
#1124=DIRECTION('ref_axis',(1.,0.,0.));
#1125=DIRECTION('center_axis',(0.,0.,-1.));
#1126=DIRECTION('ref_axis',(1.,0.,0.));
#1127=DIRECTION('center_axis',(0.,0.,-1.));
#1128=DIRECTION('ref_axis',(1.,0.,0.));
#1129=DIRECTION('center_axis',(0.,0.,-1.));
#1130=DIRECTION('ref_axis',(1.,0.,0.));
#1131=DIRECTION('',(0.,0.,-1.));
#1132=DIRECTION('center_axis',(0.,0.,1.));
#1133=DIRECTION('ref_axis',(1.,0.,0.));
#1134=DIRECTION('center_axis',(0.,0.,-1.));
#1135=DIRECTION('ref_axis',(1.,0.,0.));
#1136=DIRECTION('center_axis',(0.,1.,0.));
#1137=DIRECTION('ref_axis',(-1.,0.,0.));
#1138=DIRECTION('',(-0.854888279509623,0.,0.518812133201486));
#1139=DIRECTION('',(0.,0.,1.));
#1140=DIRECTION('',(-0.865957778047843,0.,0.500117112923006));
#1141=DIRECTION('',(-1.,6.08341096404342E-15,0.));
#1142=DIRECTION('',(-1.,-6.09685509397533E-15,0.));
#1143=DIRECTION('',(-0.866409306080487,0.,-0.499334471408824));
#1144=DIRECTION('',(-1.09139766003185E-6,0.,-0.999999999999404));
#1145=DIRECTION('',(-0.866331205263144,0.,-0.499469961846864));
#1146=DIRECTION('',(0.,0.,1.));
#1147=DIRECTION('',(1.,0.,0.));
#1148=DIRECTION('',(0.,0.,1.));
#1149=DIRECTION('',(-1.,0.,0.));
#1150=DIRECTION('center_axis',(0.,0.,-1.));
#1151=DIRECTION('ref_axis',(1.,6.09685509397533E-15,0.));
#1152=DIRECTION('',(0.,-1.,0.));
#1153=DIRECTION('center_axis',(0.499334471408824,0.,-0.866409306080487));
#1154=DIRECTION('ref_axis',(0.866409306080487,0.,0.499334471408824));
#1155=DIRECTION('',(0.,-1.,0.));
#1156=DIRECTION('center_axis',(0.999999999999404,0.,-1.09139766003185E-6));
#1157=DIRECTION('ref_axis',(1.09139766003185E-6,0.,0.999999999999404));
#1158=DIRECTION('',(0.,-1.,0.));
#1159=DIRECTION('center_axis',(0.499469961846864,0.,-0.866331205263144));
#1160=DIRECTION('ref_axis',(0.866331205263144,0.,0.499469961846864));
#1161=DIRECTION('center_axis',(-1.,0.,0.));
#1162=DIRECTION('ref_axis',(0.,0.,-1.));
#1163=DIRECTION('',(0.,-1.,0.));
#1164=DIRECTION('center_axis',(0.,0.,1.));
#1165=DIRECTION('ref_axis',(-1.,0.,0.));
#1166=DIRECTION('',(0.,-1.,0.));
#1167=DIRECTION('center_axis',(1.,0.,0.));
#1168=DIRECTION('ref_axis',(0.,0.,1.));
#1169=DIRECTION('',(0.,-1.,0.));
#1170=DIRECTION('center_axis',(0.,0.,-1.));
#1171=DIRECTION('ref_axis',(1.,0.,0.));
#1172=DIRECTION('',(0.,-1.,0.));
#1173=DIRECTION('center_axis',(-0.518812133201486,0.,-0.854888279509623));
#1174=DIRECTION('ref_axis',(0.854888279509623,0.,-0.518812133201486));
#1175=DIRECTION('',(0.,-1.,0.));
#1176=DIRECTION('center_axis',(-1.,0.,0.));
#1177=DIRECTION('ref_axis',(0.,0.,-1.));
#1178=DIRECTION('',(0.,-1.,0.));
#1179=DIRECTION('center_axis',(-0.500117112923006,0.,-0.865957778047843));
#1180=DIRECTION('ref_axis',(0.865957778047843,0.,-0.500117112923006));
#1181=DIRECTION('',(0.,-1.,0.));
#1182=DIRECTION('center_axis',(0.,0.,-1.));
#1183=DIRECTION('ref_axis',(1.,-6.08341096404342E-15,0.));
#1184=DIRECTION('center_axis',(0.,0.,1.));
#1185=DIRECTION('ref_axis',(-6.12323399573677E-17,1.,0.));
#1186=CARTESIAN_POINT('',(0.,0.,0.));
#1187=CARTESIAN_POINT('Origin',(0.,-16.0000002384186,65.5116305714844));
#1188=CARTESIAN_POINT('',(2.00000002980232,-16.0000002384186,65.5116305714844));
#1189=CARTESIAN_POINT('Origin',(0.,-16.0000002384186,65.5116305714844));
#1190=CARTESIAN_POINT('',(2.00000002980232,-16.0000002384186,60.5116305714844));
#1191=CARTESIAN_POINT('',(2.00000002980232,-16.0000002384186,65.5116305714844));
#1192=CARTESIAN_POINT('',(1.30800822820708,-17.512982258851,60.5116305714844));
#1193=CARTESIAN_POINT('Origin',(0.,-16.0000002384186,60.5116305714844));
#1194=CARTESIAN_POINT('',(1.30800822820708,-17.512982258851,60.5172748999168));
#1195=CARTESIAN_POINT('',(1.30800822820708,-17.512982258851,65.5116305714844));
#1196=CARTESIAN_POINT('',(-1.96048516742077,-16.3955985543054,60.5172748999168));
#1197=CARTESIAN_POINT('Origin',(0.,-16.0000002384186,60.5172748999168));
#1198=CARTESIAN_POINT('',(-1.96048516742077,-16.3955985543054,60.5116305714844));
#1199=CARTESIAN_POINT('',(-1.96048516742077,-16.3955985543054,65.5116305714844));
#1200=CARTESIAN_POINT('Origin',(0.,-16.0000002384186,60.5116305714844));
#1201=CARTESIAN_POINT('Origin',(-0.0120607849204335,-16.0422978609689,60.5172748999168));
#1202=CARTESIAN_POINT('',(-5.10604822938836,-22.4999999999751,60.5172748999168));
#1203=CARTESIAN_POINT('',(5.08192665954749,-22.4999999999751,60.5172748999168));
#1204=CARTESIAN_POINT('',(-0.00484665855744915,-22.5,60.5172748999168));
#1205=CARTESIAN_POINT('Origin',(-0.0120607849204335,-16.0422978609689,60.5172748999168));
#1206=CARTESIAN_POINT('Origin',(0.345106299497705,-14.9905192015026,60.5172748999168));
#1207=CARTESIAN_POINT('Origin',(0.345106299497705,-14.9905192015026,65.5116305714844));
#1208=CARTESIAN_POINT('Origin',(0.345106299497705,-14.9905192015026,60.5116305714844));
#1209=CARTESIAN_POINT('Origin',(0.345106299497705,-14.9905192015026,60.5116305714844));
#1210=CARTESIAN_POINT('Origin',(0.00236746780553521,-22.5,58.005815654546));
#1211=CARTESIAN_POINT('',(-5.10604822938837,-22.4999999999751,55.0172748999168));
#1212=CARTESIAN_POINT('',(-5.10604822930561,-22.5,60.0172748999168));
#1213=CARTESIAN_POINT('',(5.0819266595475,-22.4999999999751,55.0172748999168));
#1214=CARTESIAN_POINT('',(5.08192665946474,-22.5,57.0172748999168));
#1215=CARTESIAN_POINT('',(9.50000014156103,-22.5,55.0172748999168));
#1216=CARTESIAN_POINT('',(9.50000014156103,-22.5,55.0172748999168));
#1217=CARTESIAN_POINT('',(9.50000014156103,-22.5,55.0000025648624));
#1218=CARTESIAN_POINT('',(9.50000014156103,-22.5,57.0172748999168));
#1219=CARTESIAN_POINT('',(10.2300004858989,-22.5,55.0000025648624));
#1220=CARTESIAN_POINT('',(10.2300004858989,-22.5,55.0000025648624));
#1221=CARTESIAN_POINT('',(15.0080639958827,-22.5,52.2405246912843));
#1222=CARTESIAN_POINT('',(15.0080639958827,-22.5,52.2405246912843));
#1223=CARTESIAN_POINT('',(15.0080639958827,-22.5,51.3029977515452));
#1224=CARTESIAN_POINT('',(15.0080639958827,-22.5,51.3029977515452));
#1225=CARTESIAN_POINT('',(16.3312264505857,-22.5,50.5000007376075));
#1226=CARTESIAN_POINT('',(16.3312264505857,-22.5,50.5000007376075));
#1227=CARTESIAN_POINT('',(16.3312264505857,-22.5,59.5000007376075));
#1228=CARTESIAN_POINT('',(16.3312264505857,-22.5,54.2529081960767));
#1229=CARTESIAN_POINT('',(23.0512264505857,-22.5,59.5000007376075));
#1230=CARTESIAN_POINT('',(9.84679695919561,-22.5,59.5000007376075));
#1231=CARTESIAN_POINT('',(23.0512264505857,-22.5,65.5116305714844));
#1232=CARTESIAN_POINT('',(23.0512264505857,-22.5,50.5000007376075));
#1233=CARTESIAN_POINT('',(-23.0464915149746,-22.5,65.5116305714844));
#1234=CARTESIAN_POINT('',(-23.0464915149746,-22.5,65.5116305714844));
#1235=CARTESIAN_POINT('',(-23.0464915149746,-22.5,58.5116305714844));
#1236=CARTESIAN_POINT('',(-23.0464915149746,-22.5,50.5116305714844));
#1237=CARTESIAN_POINT('',(-16.3500874964832,-22.5,58.5116305714844));
#1238=CARTESIAN_POINT('',(-9.84796101896169,-22.5,58.5116305714844));
#1239=CARTESIAN_POINT('',(-16.3500874964832,-22.5,50.5116305714844));
#1240=CARTESIAN_POINT('',(-16.3500874964832,-22.5,54.2587231130152));
#1241=CARTESIAN_POINT('',(-15.0000007124618,-22.5,51.2900023886468));
#1242=CARTESIAN_POINT('',(-15.0000007124618,-22.5,51.2900023886468));
#1243=CARTESIAN_POINT('',(-14.9999996647239,-22.5,52.2499988544732));
#1244=CARTESIAN_POINT('',(-14.9999996647239,-22.5,52.2499988544732));
#1245=CARTESIAN_POINT('',(-10.2283907675559,-22.5,55.0000025648624));
#1246=CARTESIAN_POINT('',(-10.2283907675559,-22.5,55.0000025648624));
#1247=CARTESIAN_POINT('',(-9.50000014156103,-22.5,55.0000025648624));
#1248=CARTESIAN_POINT('',(-9.50000014156103,-22.5,55.0000025648624));
#1249=CARTESIAN_POINT('',(-9.50000014156103,-22.5,55.0172748999168));
#1250=CARTESIAN_POINT('',(-9.50000014156103,-22.5,55.0000025648624));
#1251=CARTESIAN_POINT('',(9.50000014156103,-22.5,55.0172748999168));
#1252=CARTESIAN_POINT('',(-12.0000001788139,-22.5,60.5000008642673));
#1253=CARTESIAN_POINT('Origin',(-12.0000001788139,-22.5,59.0000008642673));
#1254=CARTESIAN_POINT('',(12.0000001788139,-22.5,60.5000008642673));
#1255=CARTESIAN_POINT('Origin',(12.0000001788139,-22.5,59.0000008642673));
#1256=CARTESIAN_POINT('Origin',(-9.50000014156103,4.44089209850063E-15,
55.0172748999168));
#1257=CARTESIAN_POINT('Origin',(-0.0120607849204335,-16.0422978609689,55.0172748999168));
#1258=CARTESIAN_POINT('',(-9.50000014156103,4.44089209850063E-15,55.0172748999168));
#1259=CARTESIAN_POINT('',(-9.50000014156103,4.44089209850063E-15,55.0172748999168));
#1260=CARTESIAN_POINT('',(9.50000014156103,4.44089209850063E-15,55.0172748999168));
#1261=CARTESIAN_POINT('',(9.50000014156103,4.44089209850063E-15,55.0172748999168));
#1262=CARTESIAN_POINT('',(9.50000014156103,4.44089209850063E-15,55.0172748999168));
#1263=CARTESIAN_POINT('Origin',(9.50000014156103,4.44089209850063E-15,57.0172748999168));
#1264=CARTESIAN_POINT('',(9.50000014156103,4.44089209850063E-15,55.0000025648624));
#1265=CARTESIAN_POINT('',(9.50000014156103,4.44089209850063E-15,57.0172748999168));
#1266=CARTESIAN_POINT('',(9.50000014156103,4.44089209850063E-15,55.0000025648624));
#1267=CARTESIAN_POINT('Origin',(-9.50000014156103,4.44089209850063E-15,
55.0000025648624));
#1268=CARTESIAN_POINT('',(-9.50000014156103,4.44089209850063E-15,55.0000025648624));
#1269=CARTESIAN_POINT('',(-9.50000014156103,4.44089209850063E-15,55.0000025648624));
#1270=CARTESIAN_POINT('',(-9.50000014156103,4.44089209850063E-15,55.0000025648624));
#1271=CARTESIAN_POINT('Origin',(-12.0000001788139,-2.5,59.0000008642673));
#1272=CARTESIAN_POINT('',(-12.0000001788139,4.44089209850063E-15,56.6500008642673));
#1273=CARTESIAN_POINT('Origin',(-12.0000001788139,4.44089209850063E-15,
59.0000008642673));
#1274=CARTESIAN_POINT('',(-12.0000001788139,-5.,56.6500008642673));
#1275=CARTESIAN_POINT('',(-12.0000001788139,-2.5,56.6500008642673));
#1276=CARTESIAN_POINT('Origin',(-12.0000001788139,-5.,59.0000008642673));
#1277=CARTESIAN_POINT('Origin',(-12.0000001788139,-5.,59.0000008642673));
#1278=CARTESIAN_POINT('',(-12.0000001788139,-5.,60.5000008642673));
#1279=CARTESIAN_POINT('Origin',(-12.0000001788139,-5.,59.0000008642673));
#1280=CARTESIAN_POINT('Origin',(12.0000001788139,-2.5,59.0000008642673));
#1281=CARTESIAN_POINT('',(12.0000001788139,4.44089209850063E-15,56.6500008642673));
#1282=CARTESIAN_POINT('Origin',(12.0000001788139,4.44089209850063E-15,59.0000008642673));
#1283=CARTESIAN_POINT('',(12.0000001788139,-5.,56.6500008642673));
#1284=CARTESIAN_POINT('',(12.0000001788139,-2.5,56.6500008642673));
#1285=CARTESIAN_POINT('Origin',(12.0000001788139,-5.,59.0000008642673));
#1286=CARTESIAN_POINT('Origin',(12.0000001788139,-5.,59.0000008642673));
#1287=CARTESIAN_POINT('',(12.0000001788139,-5.,60.5000008642673));
#1288=CARTESIAN_POINT('Origin',(12.0000001788139,-5.,59.0000008642673));
#1289=CARTESIAN_POINT('Origin',(12.0000001788139,-14.,59.0000008642673));
#1290=CARTESIAN_POINT('',(12.0000001788139,-14.,60.5000008642673));
#1291=CARTESIAN_POINT('Origin',(-12.0000001788139,-14.,59.0000008642673));
#1292=CARTESIAN_POINT('',(-12.0000001788139,-14.,60.5000008642673));
#1293=CARTESIAN_POINT('Origin',(16.3312264505857,-10.0000001490116,50.5000007376075));
#1294=CARTESIAN_POINT('',(16.3312264505857,-10.0000001490116,50.5000007376075));
#1295=CARTESIAN_POINT('',(16.3312264505857,0.,50.5000007376075));
#1296=CARTESIAN_POINT('',(16.3312264505857,-10.0000001490116,59.5000007376075));
#1297=CARTESIAN_POINT('',(16.3312264505857,-10.0000001490116,50.5000007376075));
#1298=CARTESIAN_POINT('',(16.3312264505857,-22.5,59.5000007376075));
#1299=CARTESIAN_POINT('Origin',(18.6999995820224,-10.0000001490116,50.5000007376075));
#1300=CARTESIAN_POINT('',(18.6999995820224,-10.0000001490116,50.5000007376075));
#1301=CARTESIAN_POINT('',(17.5156130163041,-10.0000001490116,50.5000007376075));
#1302=CARTESIAN_POINT('',(18.6999995820224,-10.0000001490116,59.5000007376075));
#1303=CARTESIAN_POINT('',(18.6999995820224,-10.0000001490116,50.5000007376075));
#1304=CARTESIAN_POINT('',(16.3312264505857,-10.0000001490116,59.5000007376075));
#1305=CARTESIAN_POINT('Origin',(23.0512264505857,-7.45772343288935,50.5000007376075));
#1306=CARTESIAN_POINT('',(23.0512264505857,-7.45772343288935,50.5000007376075));
#1307=CARTESIAN_POINT('',(22.1705204001958,-7.97229060056116,50.5000007376075));
#1308=CARTESIAN_POINT('',(23.0512264505857,-7.45772343288935,59.5000007376075));
#1309=CARTESIAN_POINT('',(23.0512264505857,-7.45772343288935,50.5000007376075));
#1310=CARTESIAN_POINT('',(18.6999995820224,-10.0000001490116,59.5000007376075));
#1311=CARTESIAN_POINT('Origin',(19.6912264505857,-14.9788617164447,59.5000007376075));
#1312=CARTESIAN_POINT('',(23.0512264505857,-7.48943085822234,59.5000007376075));
#1313=CARTESIAN_POINT('Origin',(-18.7999995797873,-9.99999977648258,50.5116305714844));
#1314=CARTESIAN_POINT('',(-18.7999995797873,-9.99999977648258,50.5116305714844));
#1315=CARTESIAN_POINT('',(-23.0464915149746,-7.52414192214814,50.5116305714844));
#1316=CARTESIAN_POINT('',(-22.5602126163075,-7.80766004699979,50.5116305714844));
#1317=CARTESIAN_POINT('',(-18.7999995797873,-9.99999977648258,58.5116305714844));
#1318=CARTESIAN_POINT('',(-18.7999995797873,-9.99999977648258,50.5116305714844));
#1319=CARTESIAN_POINT('',(-23.0464915149746,-7.52414192214814,58.5116305714844));
#1320=CARTESIAN_POINT('',(-18.7999995797873,-9.99999977648258,58.5116305714844));
#1321=CARTESIAN_POINT('',(-23.0464915149746,-7.52414192214814,58.0116305714844));
#1322=CARTESIAN_POINT('Origin',(-16.3500874964832,-10.0000001490116,50.5116305714844));
#1323=CARTESIAN_POINT('',(-16.3500874964832,-10.0000001490116,50.5116305714844));
#1324=CARTESIAN_POINT('',(-19.6982902660195,-9.99999963989019,50.5116305714844));
#1325=CARTESIAN_POINT('',(-16.3500874964832,-10.0000001490116,58.5116305714844));
#1326=CARTESIAN_POINT('',(-16.3500874964832,-10.0000001490116,50.5116305714844));
#1327=CARTESIAN_POINT('',(-18.7999995797873,-9.99999977648258,58.5116305714844));
#1328=CARTESIAN_POINT('Origin',(-16.3500874964832,-22.5,50.5116305714844));
#1329=CARTESIAN_POINT('',(-16.3500874964832,0.,50.5116305714844));
#1330=CARTESIAN_POINT('',(-16.3500874964832,-22.5,58.5116305714844));
#1331=CARTESIAN_POINT('Origin',(-19.6982895057289,-15.0120709610741,58.5116305714844));
#1332=CARTESIAN_POINT('',(-23.0464915149746,-7.50603548053704,58.5116305714844));
#1333=CARTESIAN_POINT('Origin',(-23.0464915149746,0.,50.5116305714844));
#1334=CARTESIAN_POINT('',(-23.0464915149746,0.,50.5116305714844));
#1335=CARTESIAN_POINT('',(-23.0464915149746,0.,50.5116305714844));
#1336=CARTESIAN_POINT('',(-16.3500874964832,0.,50.5116305714844));
#1337=CARTESIAN_POINT('',(-16.3500874964832,0.,50.5116305714844));
#1338=CARTESIAN_POINT('',(-16.3500874964832,0.,50.5116305714844));
#1339=CARTESIAN_POINT('',(-16.68443022585,-4.9166094752194,50.5116305714844));
#1340=CARTESIAN_POINT('Origin',(-18.68443022585,-4.9166094752194,50.5116305714844));
#1341=CARTESIAN_POINT('Origin',(-18.68443022585,-4.9166094752194,63.0116305714844));
#1342=CARTESIAN_POINT('',(-21.63443022585,-4.9166094752194,65.5116305714844));
#1343=CARTESIAN_POINT('Origin',(-18.68443022585,-4.9166094752194,65.5116305714844));
#1344=CARTESIAN_POINT('',(-21.63443022585,-4.9166094752194,60.5116305714844));
#1345=CARTESIAN_POINT('',(-21.63443022585,-4.9166094752194,63.0116305714844));
#1346=CARTESIAN_POINT('Origin',(-18.68443022585,-4.9166094752194,60.5116305714844));
#1347=CARTESIAN_POINT('Origin',(-18.68443022585,-4.9166094752194,60.5116305714844));
#1348=CARTESIAN_POINT('',(-16.68443022585,-4.9166094752194,60.5116305714844));
#1349=CARTESIAN_POINT('Origin',(-18.68443022585,-4.9166094752194,60.5116305714844));
#1350=CARTESIAN_POINT('Origin',(-18.68443022585,-4.9166094752194,56.0028687157686));
#1351=CARTESIAN_POINT('',(-16.68443022585,-4.9166094752194,56.0028687157686));
#1352=CARTESIAN_POINT('Origin',(18.7045847854275,-5.02583604462802,63.0116305714844));
#1353=CARTESIAN_POINT('',(15.5545847854275,-5.02583604462802,65.5116305714844));
#1354=CARTESIAN_POINT('Origin',(18.7045847854275,-5.02583604462802,65.5116305714844));
#1355=CARTESIAN_POINT('',(15.5545847854275,-5.02583604462802,60.5116305714844));
#1356=CARTESIAN_POINT('',(15.5545847854275,-5.02583604462802,63.0116305714844));
#1357=CARTESIAN_POINT('Origin',(18.7045847854275,-5.02583604462802,60.5116305714844));
#1358=CARTESIAN_POINT('Origin',(18.7045847854275,-5.02583604462802,60.5116305714844));
#1359=CARTESIAN_POINT('',(20.7045847854275,-5.02583604462802,60.5116305714844));
#1360=CARTESIAN_POINT('Origin',(18.7045847854275,-5.02583604462802,60.5116305714844));
#1361=CARTESIAN_POINT('Origin',(18.7045847854275,-5.02583604462802,56.0025156818587));
#1362=CARTESIAN_POINT('',(20.7045847854275,-5.02583604462802,50.5000007376075));
#1363=CARTESIAN_POINT('Origin',(18.7045847854275,-5.02583604462802,50.5000007376075));
#1364=CARTESIAN_POINT('',(20.7045847854275,-5.02583604462802,56.0025156818587));
#1365=CARTESIAN_POINT('Origin',(17.9694126765185,-14.6980018698514,63.0116305714844));
#1366=CARTESIAN_POINT('',(15.6194126765185,-14.6980018698514,65.5116305714844));
#1367=CARTESIAN_POINT('Origin',(17.9694126765185,-14.6980018698514,65.5116305714844));
#1368=CARTESIAN_POINT('',(15.6194126765185,-14.6980018698514,60.5116305714844));
#1369=CARTESIAN_POINT('',(15.6194126765185,-14.6980018698514,63.0116305714844));
#1370=CARTESIAN_POINT('Origin',(17.9694126765185,-14.6980018698514,60.5116305714844));
#1371=CARTESIAN_POINT('Origin',(17.9694126765185,-14.6980018698514,60.5116305714844));
#1372=CARTESIAN_POINT('Origin',(-19.099320133822,-14.942201162507,63.0116305714845));
#1373=CARTESIAN_POINT('',(-21.449320133822,-14.942201162507,65.5116305714844));
#1374=CARTESIAN_POINT('Origin',(-19.099320133822,-14.942201162507,65.5116305714844));
#1375=CARTESIAN_POINT('',(-21.449320133822,-14.942201162507,60.5116305714845));
#1376=CARTESIAN_POINT('',(-21.449320133822,-14.942201162507,63.0116305714845));
#1377=CARTESIAN_POINT('Origin',(-19.099320133822,-14.942201162507,60.5116305714845));
#1378=CARTESIAN_POINT('Origin',(-19.099320133822,-14.942201162507,60.5116305714845));
#1379=CARTESIAN_POINT('Origin',(0.00236746780553521,4.44089209850063E-15,
58.005815654546));
#1380=CARTESIAN_POINT('',(16.3312264505857,0.,50.5000007376075));
#1381=CARTESIAN_POINT('',(15.0080639958827,0.,51.3029977515452));
#1382=CARTESIAN_POINT('',(16.3312264505857,0.,50.5000007376075));
#1383=CARTESIAN_POINT('',(15.0080639958827,0.,52.2405246912843));
#1384=CARTESIAN_POINT('',(15.0080639958827,0.,51.3029977515452));
#1385=CARTESIAN_POINT('',(10.2300004858989,0.,55.0000025648624));
#1386=CARTESIAN_POINT('',(15.0080639958827,0.,52.2405246912843));
#1387=CARTESIAN_POINT('',(10.2300004858989,0.,55.0000025648624));
#1388=CARTESIAN_POINT('',(-10.2283907675559,0.,55.0000025648624));
#1389=CARTESIAN_POINT('',(-9.50000014156103,4.44089209850063E-15,55.0000025648624));
#1390=CARTESIAN_POINT('',(-14.9999996647239,0.,52.2499988544732));
#1391=CARTESIAN_POINT('',(-10.2283907675559,0.,55.0000025648624));
#1392=CARTESIAN_POINT('',(-15.0000007124618,0.,51.2900023886468));
#1393=CARTESIAN_POINT('',(-14.9999996647239,0.,52.2499988544732));
#1394=CARTESIAN_POINT('',(-15.0000007124618,0.,51.2900023886468));
#1395=CARTESIAN_POINT('',(-23.0464915149746,0.,65.5116305714844));
#1396=CARTESIAN_POINT('',(-23.0464915149746,0.,50.5116305714844));
#1397=CARTESIAN_POINT('',(23.0512264505857,0.,65.5116305714844));
#1398=CARTESIAN_POINT('',(-23.0464915149746,0.,65.5116305714844));
#1399=CARTESIAN_POINT('',(23.0512264505857,0.,50.5000007376075));
#1400=CARTESIAN_POINT('',(23.0512264505857,0.,50.5000007376075));
#1401=CARTESIAN_POINT('',(23.0512264505857,0.,50.5000007376075));
#1402=CARTESIAN_POINT('Origin',(-10.2283907675559,0.,55.0000025648624));
#1403=CARTESIAN_POINT('',(-10.2283907675559,0.,55.0000025648624));
#1404=CARTESIAN_POINT('Origin',(-14.9999996647239,0.,52.2499988544732));
#1405=CARTESIAN_POINT('',(-14.9999996647239,0.,52.2499988544732));
#1406=CARTESIAN_POINT('Origin',(-15.0000007124618,0.,51.2900023886468));
#1407=CARTESIAN_POINT('',(-15.0000007124618,0.,51.2900023886468));
#1408=CARTESIAN_POINT('Origin',(-16.3500874964832,0.,50.5116305714844));
#1409=CARTESIAN_POINT('Origin',(-23.0464915149746,0.,65.5116305714844));
#1410=CARTESIAN_POINT('',(-23.0464915149746,0.,65.5116305714844));
#1411=CARTESIAN_POINT('Origin',(23.0512264505857,0.,65.5116305714844));
#1412=CARTESIAN_POINT('',(23.0512264505857,0.,65.5116305714844));
#1413=CARTESIAN_POINT('Origin',(23.0512264505857,0.,50.5000007376075));
#1414=CARTESIAN_POINT('',(23.0512264505857,0.,50.5000007376075));
#1415=CARTESIAN_POINT('Origin',(16.3312264505857,0.,50.5000007376075));
#1416=CARTESIAN_POINT('',(16.3312264505857,0.,50.5000007376075));
#1417=CARTESIAN_POINT('Origin',(15.0080639958827,0.,51.3029977515452));
#1418=CARTESIAN_POINT('',(15.0080639958827,0.,51.3029977515452));
#1419=CARTESIAN_POINT('Origin',(15.0080639958827,0.,52.2405246912843));
#1420=CARTESIAN_POINT('',(15.0080639958827,0.,52.2405246912843));
#1421=CARTESIAN_POINT('Origin',(10.2300004858989,0.,55.0000025648624));
#1422=CARTESIAN_POINT('',(10.2300004858989,0.,55.0000025648624));
#1423=CARTESIAN_POINT('Origin',(9.50000014156103,4.44089209850063E-15,55.0000025648624));
#1424=CARTESIAN_POINT('Origin',(-0.0120607849204335,-16.0422978609689,57.0172748999168));
#1425=UNCERTAINTY_MEASURE_WITH_UNIT(LENGTH_MEASURE(0.01),#1429,
'DISTANCE_ACCURACY_VALUE',
'Maximum model space distance between geometric entities at asserted c
onnectivities');
#1426=UNCERTAINTY_MEASURE_WITH_UNIT(LENGTH_MEASURE(0.01),#1429,
'DISTANCE_ACCURACY_VALUE',
'Maximum model space distance between geometric entities at asserted c
onnectivities');
#1427=(
GEOMETRIC_REPRESENTATION_CONTEXT(3)
GLOBAL_UNCERTAINTY_ASSIGNED_CONTEXT((#1425))
GLOBAL_UNIT_ASSIGNED_CONTEXT((#1429,#1431,#1432))
REPRESENTATION_CONTEXT('','3D')
);
#1428=(
GEOMETRIC_REPRESENTATION_CONTEXT(3)
GLOBAL_UNCERTAINTY_ASSIGNED_CONTEXT((#1426))
GLOBAL_UNIT_ASSIGNED_CONTEXT((#1429,#1431,#1432))
REPRESENTATION_CONTEXT('','3D')
);
#1429=(
LENGTH_UNIT()
NAMED_UNIT(*)
SI_UNIT(.MILLI.,.METRE.)
);
#1430=(
LENGTH_UNIT()
NAMED_UNIT(*)
SI_UNIT($,.METRE.)
);
#1431=(
NAMED_UNIT(*)
PLANE_ANGLE_UNIT()
SI_UNIT($,.RADIAN.)
);
#1432=(
NAMED_UNIT(*)
SI_UNIT($,.STERADIAN.)
SOLID_ANGLE_UNIT()
);
#1433=SHAPE_DEFINITION_REPRESENTATION(#1434,#1435);
#1434=PRODUCT_DEFINITION_SHAPE('',$,#1437);
#1435=SHAPE_REPRESENTATION('',(#871),#1427);
#1436=PRODUCT_DEFINITION_CONTEXT('part definition',#1441,'design');
#1437=PRODUCT_DEFINITION('orbiter mount','orbiter mount',#1438,#1436);
#1438=PRODUCT_DEFINITION_FORMATION('',$,#1443);
#1439=PRODUCT_RELATED_PRODUCT_CATEGORY('orbiter mount','orbiter mount',
(#1443));
#1440=APPLICATION_PROTOCOL_DEFINITION('international standard',
'ap242_managed_model_based_3d_engineering',2011,#1441);
#1441=APPLICATION_CONTEXT('Managed model based 3d engineering');
#1442=PRODUCT_CONTEXT('part definition',#1441,'mechanical');
#1443=PRODUCT('orbiter mount','orbiter mount',$,(#1442));
#1444=PRESENTATION_STYLE_ASSIGNMENT((#1445));
#1445=SURFACE_STYLE_USAGE(.BOTH.,#1446);
#1446=SURFACE_SIDE_STYLE('',(#1447));
#1447=SURFACE_STYLE_FILL_AREA(#1448);
#1448=FILL_AREA_STYLE('Steel - Satin',(#1449));
#1449=FILL_AREA_STYLE_COLOUR('Steel - Satin',#1450);
#1450=COLOUR_RGB('Steel - Satin',0.627450980392157,0.627450980392157,0.627450980392157);
ENDSEC;
END-ISO-10303-21;
